<svg xmlns="http://www.w3.org/2000/svg" width="373" height="68" viewBox="0 0 373 68" fill="none">
<path d="M52.472 51H43.4V38.808C43.4 36.952 43.08 35.624 42.44 34.824C41.832 34.024 40.92 33.624 39.704 33.624C38.232 33.624 37.16 34.104 36.488 35.064C35.848 36.024 35.528 37.256 35.528 38.76V46.344H38.408V51H29.336V38.808C29.336 36.952 29.016 35.624 28.376 34.824C27.768 34.024 26.856 33.624 25.64 33.624C24.136 33.624 23.064 34.104 22.424 35.064C21.784 36.024 21.464 37.256 21.464 38.76V46.344H25.592V51H12.392V46.344H15.272V34.056H12.44V29.352H21.464V32.616C22.84 30.152 25.032 28.92 28.04 28.92C29.608 28.92 31.048 29.304 32.36 30.072C33.672 30.84 34.584 32.008 35.096 33.576C36.376 30.472 38.728 28.92 42.152 28.92C44.104 28.92 45.832 29.528 47.336 30.744C48.84 31.96 49.592 33.848 49.592 36.408V46.344H52.472V51ZM75.2709 44.184C75.1109 46.104 74.1669 47.8 72.4389 49.272C70.7109 50.744 68.2949 51.48 65.1909 51.48C61.9589 51.48 59.2869 50.568 57.1749 48.744C55.0949 46.92 54.0549 44.2 54.0549 40.584C54.0549 37.256 54.9989 34.488 56.8869 32.28C58.8069 30.04 61.4789 28.92 64.9029 28.92C67.9109 28.92 70.3429 29.784 72.1989 31.512C74.0869 33.24 75.0469 35.512 75.0789 38.328C75.0789 39.384 74.9669 40.424 74.7429 41.448H60.5349C60.8869 44.872 62.5829 46.584 65.6229 46.584C67.2869 46.584 68.4069 46.184 68.9829 45.384C69.5909 44.584 69.9589 43.864 70.0869 43.224L75.2709 44.184ZM68.6949 37.848C68.8229 36.76 68.5829 35.736 67.9749 34.776C67.3989 33.816 66.3749 33.336 64.9029 33.336C63.6229 33.336 62.6309 33.752 61.9269 34.584C61.2229 35.416 60.7749 36.504 60.5829 37.848H68.6949ZM117.722 51H108.65V38.808C108.65 36.952 108.33 35.624 107.69 34.824C107.082 34.024 106.17 33.624 104.954 33.624C103.482 33.624 102.41 34.104 101.738 35.064C101.098 36.024 100.778 37.256 100.778 38.76V46.344H103.658V51H94.586V38.808C94.586 36.952 94.266 35.624 93.626 34.824C93.018 34.024 92.106 33.624 90.89 33.624C89.386 33.624 88.314 34.104 87.674 35.064C87.034 36.024 86.714 37.256 86.714 38.76V46.344H90.842V51H77.642V46.344H80.522V34.056H77.69V29.352H86.714V32.616C88.09 30.152 90.282 28.92 93.29 28.92C94.858 28.92 96.298 29.304 97.61 30.072C98.922 30.84 99.834 32.008 100.346 33.576C101.626 30.472 103.978 28.92 107.402 28.92C109.354 28.92 111.082 29.528 112.586 30.744C114.09 31.96 114.842 33.848 114.842 36.408V46.344H117.722V51ZM142.441 40.2C142.441 43.624 141.321 46.36 139.081 48.408C136.841 50.456 133.993 51.48 130.537 51.48C127.209 51.48 124.489 50.52 122.377 48.6C120.297 46.648 119.257 43.928 119.257 40.44C119.257 37.272 120.217 34.552 122.137 32.28C124.057 30.008 126.969 28.872 130.873 28.872C134.777 28.872 137.673 30.008 139.561 32.28C141.481 34.52 142.441 37.16 142.441 40.2ZM136.057 40.008C136.057 37.8 135.545 36.184 134.521 35.16C133.497 34.136 132.249 33.624 130.777 33.624C129.177 33.624 127.913 34.2 126.985 35.352C126.089 36.472 125.641 38.056 125.641 40.104C125.641 41.96 126.057 43.528 126.889 44.808C127.753 46.088 129.033 46.728 130.729 46.728C132.329 46.728 133.609 46.136 134.569 44.952C135.561 43.736 136.057 42.088 136.057 40.008ZM158.494 29.064C159.102 29.064 159.774 29.16 160.51 29.352C161.278 29.512 162.03 29.816 162.766 30.264L163.726 37.848L159.022 38.376L158.206 34.68C157.566 34.296 157.006 34.104 156.526 34.104C155.822 34.104 155.198 34.376 154.654 34.92C154.142 35.464 153.886 36.264 153.886 37.32V46.344H157.726V51H144.814V46.344H147.694V34.056H144.574V29.352H153.406V33.48C153.758 32.232 154.318 31.192 155.086 30.36C155.886 29.496 157.022 29.064 158.494 29.064ZM189.713 34.008H187.601L180.641 51L178.577 56.424H181.409V61.224H169.457V56.424H172.913L174.641 51.336L167.057 34.008H164.849V29.352H175.889V34.008H173.729L178.145 43.992H178.433L181.697 34.008H179.825V29.352H189.713V34.008ZM223.284 39.672C223.284 42.872 222.436 45.64 220.74 47.976C219.076 50.312 216.612 51.48 213.348 51.48C210.052 51.48 207.732 50.232 206.388 47.736C206.324 48.28 206.244 48.824 206.148 49.368C206.084 49.912 206.004 50.456 205.908 51H199.716C199.94 49.88 200.132 48.76 200.292 47.64C200.452 46.52 200.532 45.416 200.532 44.328V22.68H197.652V17.976H206.724V33.48C207.3 32.232 208.164 31.16 209.316 30.264C210.5 29.368 212.068 28.92 214.02 28.92C216.74 28.92 218.964 29.864 220.692 31.752C222.42 33.64 223.284 36.28 223.284 39.672ZM216.852 40.2C216.852 38.12 216.404 36.536 215.508 35.448C214.612 34.36 213.428 33.816 211.956 33.816C210.292 33.816 208.996 34.424 208.068 35.64C207.172 36.856 206.724 38.264 206.724 39.864V40.392C206.724 42.152 207.156 43.64 208.02 44.856C208.916 46.04 210.18 46.632 211.812 46.632C213.22 46.632 214.404 46.12 215.364 45.096C216.356 44.04 216.852 42.408 216.852 40.2ZM248.425 40.2C248.425 43.624 247.305 46.36 245.065 48.408C242.825 50.456 239.977 51.48 236.521 51.48C233.193 51.48 230.473 50.52 228.361 48.6C226.281 46.648 225.241 43.928 225.241 40.44C225.241 37.272 226.201 34.552 228.121 32.28C230.041 30.008 232.953 28.872 236.857 28.872C240.761 28.872 243.657 30.008 245.545 32.28C247.465 34.52 248.425 37.16 248.425 40.2ZM242.041 40.008C242.041 37.8 241.529 36.184 240.505 35.16C239.481 34.136 238.233 33.624 236.761 33.624C235.161 33.624 233.897 34.2 232.969 35.352C232.073 36.472 231.625 38.056 231.625 40.104C231.625 41.96 232.041 43.528 232.873 44.808C233.737 46.088 235.017 46.728 236.713 46.728C238.313 46.728 239.593 46.136 240.553 44.952C241.545 43.736 242.041 42.088 242.041 40.008ZM273.55 40.2C273.55 43.624 272.43 46.36 270.19 48.408C267.95 50.456 265.102 51.48 261.646 51.48C258.318 51.48 255.598 50.52 253.486 48.6C251.406 46.648 250.366 43.928 250.366 40.44C250.366 37.272 251.326 34.552 253.246 32.28C255.166 30.008 258.078 28.872 261.982 28.872C265.886 28.872 268.782 30.008 270.67 32.28C272.59 34.52 273.55 37.16 273.55 40.2ZM267.166 40.008C267.166 37.8 266.654 36.184 265.63 35.16C264.606 34.136 263.358 33.624 261.886 33.624C260.286 33.624 259.022 34.2 258.094 35.352C257.198 36.472 256.75 38.056 256.75 40.104C256.75 41.96 257.166 43.528 257.998 44.808C258.862 46.088 260.142 46.728 261.838 46.728C263.438 46.728 264.718 46.136 265.678 44.952C266.67 43.736 267.166 42.088 267.166 40.008ZM295.411 44.376C295.411 46.776 294.451 48.568 292.531 49.752C290.643 50.904 288.179 51.48 285.139 51.48C283.571 51.48 281.987 51.32 280.387 51C278.819 50.648 277.315 50.104 275.875 49.368L276.739 43.32L281.539 43.848V46.536C282.115 46.728 282.723 46.856 283.363 46.92C284.003 46.952 284.483 46.968 284.803 46.968C285.987 46.968 287.011 46.776 287.875 46.392C288.739 46.008 289.171 45.432 289.171 44.664C289.171 43.736 288.515 43.128 287.203 42.84C285.891 42.552 284.371 42.264 282.643 41.976C280.915 41.688 279.395 41.096 278.083 40.2C276.771 39.304 276.115 37.784 276.115 35.64C276.115 32.984 277.139 31.208 279.187 30.312C281.267 29.384 283.411 28.92 285.619 28.92C288.499 28.92 291.203 29.576 293.731 30.888L294.259 36.408L289.459 36.936L289.075 33.912C288.019 33.56 286.883 33.384 285.667 33.384C284.867 33.384 284.179 33.56 283.603 33.912C283.059 34.232 282.787 34.744 282.787 35.448C282.787 36.376 283.411 37 284.659 37.32C285.939 37.608 287.411 37.896 289.075 38.184C290.771 38.472 292.243 39.064 293.491 39.96C294.771 40.824 295.411 42.296 295.411 44.376ZM316.051 44.28C315.731 46.776 314.867 48.6 313.459 49.752C312.051 50.904 310.227 51.48 307.987 51.48C305.587 51.48 303.635 50.888 302.131 49.704C300.659 48.488 299.923 46.76 299.923 44.52V33.768H296.851V29.352H299.923V22.776H306.115V29.352H313.891V33.768H306.115V43.464C306.115 45.352 306.979 46.296 308.707 46.296C309.091 46.296 309.603 46.136 310.243 45.816C310.915 45.464 311.347 44.488 311.539 42.888L316.051 44.28ZM337.912 44.184C337.752 46.104 336.808 47.8 335.08 49.272C333.352 50.744 330.936 51.48 327.832 51.48C324.6 51.48 321.928 50.568 319.816 48.744C317.736 46.92 316.696 44.2 316.696 40.584C316.696 37.256 317.64 34.488 319.528 32.28C321.448 30.04 324.12 28.92 327.544 28.92C330.552 28.92 332.984 29.784 334.84 31.512C336.728 33.24 337.688 35.512 337.72 38.328C337.72 39.384 337.608 40.424 337.384 41.448H323.176C323.528 44.872 325.224 46.584 328.264 46.584C329.928 46.584 331.048 46.184 331.624 45.384C332.232 44.584 332.6 43.864 332.728 43.224L337.912 44.184ZM331.336 37.848C331.464 36.76 331.224 35.736 330.616 34.776C330.04 33.816 329.016 33.336 327.544 33.336C326.264 33.336 325.272 33.752 324.568 34.584C323.864 35.416 323.416 36.504 323.224 37.848H331.336ZM353.963 29.064C354.571 29.064 355.243 29.16 355.979 29.352C356.747 29.512 357.499 29.816 358.235 30.264L359.195 37.848L354.491 38.376L353.675 34.68C353.035 34.296 352.475 34.104 351.995 34.104C351.291 34.104 350.667 34.376 350.123 34.92C349.611 35.464 349.355 36.264 349.355 37.32V46.344H353.195V51H340.283V46.344H343.163V34.056H340.043V29.352H348.875V33.48C349.227 32.232 349.787 31.192 350.555 30.36C351.355 29.496 352.491 29.064 353.963 29.064Z" fill="#2F3254"/>
</svg>
