<svg width="14" height="18" viewBox="0 0 14 18" fill="none" xmlns="http://www.w3.org/2000/svg">
<path fill-rule="evenodd" clip-rule="evenodd" d="M2.99996 3.99995C2.99996 1.79999 4.80005 0 7.00011 0C9.19996 0 11.0001 1.79999 11.0001 3.99995V6.99997H13C13.5999 6.99997 14 7.4 14 8.00001V17C14 17.6 13.5999 18 13 18H0.999991C0.399959 18 0 17.6 0 17V8.00001C0 7.4 0.399959 6.99997 0.999991 6.99997H2.99996V3.99995ZM4.99994 6.99997H9.00007V3.99995C9.00007 2.89995 8.09984 2 7.00011 2C5.89999 2 4.99994 2.89995 4.99994 3.99995V6.99997ZM7.9999 10.9999C7.9999 10.4477 7.55222 9.99997 7.00011 9.99997C6.44761 9.99997 5.99993 10.4477 5.99993 10.9999L6 12C6 12.5523 6.44761 13.9999 7.00011 13.9999C7.55222 13.9999 7.9999 12.5523 7.9999 12V10.9999Z" fill="#94a8b979"/>
</svg>
