<svg width="14" height="18" viewBox="0 0 14 18" fill="none" xmlns="http://www.w3.org/2000/svg">
<path fill-rule="evenodd" clip-rule="evenodd" d="M3 4.88887C3 2.19261 4.7939 0 7.0001 0C9.20593 0 11 2.19261 11 4.88887V6.11113C11 8.8073 9.20593 11 7.0001 11C4.7939 11 3 8.8073 3 6.11113V4.88887ZM7 12C8.55472 12 9.43301 11.474 10.5 10.5C10.2012 12.5919 11.5098 13.1873 12.6112 13.6885C13.3526 14.0259 14.0001 14.3205 14.0001 15V18H2.28882e-05V15C2.28882e-05 14.3205 0.647482 14.0259 1.38886 13.6885C2.49022 13.1873 3.79884 12.5919 3.5 10.5C4.56701 11.474 5.44489 12 7 12Z" fill="#94a8b979"/>
</svg>
